<svg width="24" height="21" viewBox="0 0 24 21" fill="none" xmlns="http://www.w3.org/2000/svg">
<path d="M4.44416 19.5C4.44416 19.697 4.48248 19.892 4.55693 20.074C4.63137 20.256 4.74049 20.4214 4.87805 20.5607C5.01561 20.6999 5.17892 20.8104 5.35865 20.8858C5.53838 20.9612 5.73101 21 5.92555 21C6.31844 21 6.69524 20.842 6.97305 20.5607C7.11061 20.4214 7.21973 20.256 7.29418 20.074C7.36862 19.892 7.40694 19.697 7.40694 19.5C7.40694 19.1022 7.25087 18.7206 6.97305 18.4393C6.69524 18.158 6.31844 18 5.92555 18C5.53266 18 5.15587 18.158 4.87805 18.4393C4.60024 18.7206 4.44416 19.1022 4.44416 19.5ZM17.7767 19.5C17.7767 19.697 17.815 19.892 17.8894 20.074C17.9639 20.256 18.073 20.4214 18.2106 20.5607C18.3481 20.6999 18.5114 20.8104 18.6912 20.8858C18.8709 20.9612 19.0635 21 19.2581 21C19.651 21 20.0277 20.842 20.3056 20.5607C20.4431 20.4214 20.5522 20.256 20.6267 20.074C20.7011 19.892 20.7395 19.697 20.7395 19.5C20.7395 19.1022 20.5834 18.7206 20.3056 18.4393C20.0277 18.158 19.651 18 19.2581 18C18.8652 18 18.4884 18.158 18.2106 18.4393C17.9327 18.7206 17.7767 19.1022 17.7767 19.5ZM-0.0429688 0.75C-0.0429687 0.948912 0.0350685 1.13968 0.173976 1.28033C0.312883 1.42098 0.501282 1.5 0.697726 1.5H2.23689L3.15683 5.484L4.44416 12C4.44416 12.054 4.46935 12.1005 4.47527 12.153L3.72124 15.588C3.69687 15.6976 3.6972 15.8114 3.72222 15.9209C3.74725 16.0303 3.79631 16.1327 3.86577 16.2203C3.93523 16.3079 4.0233 16.3786 4.12343 16.427C4.22357 16.4754 4.33319 16.5004 4.44416 16.5H21.2491C21.4455 16.5 21.6339 16.421 21.7728 16.2803C21.9117 16.1397 21.9897 15.9489 21.9897 15.75C21.9897 15.5511 21.9117 15.3603 21.7728 15.2197C21.6339 15.079 21.4455 15 21.2491 15H5.36855L5.70779 13.455C5.78186 13.467 5.84852 13.5 5.92555 13.5H19.4284C20.2461 13.5 20.7395 13.3365 21.1335 12.375L23.5393 4.902C23.957 3.5625 23.0401 3 22.2208 3H4.44416C4.32861 3 4.22788 3.0405 4.11974 3.066L3.54496 0.579C3.50685 0.41423 3.41483 0.267352 3.28386 0.162235C3.15288 0.0571185 2.99065 -5.73003e-05 2.82352 4.30916e-08H0.697726C0.501282 4.30916e-08 0.312883 0.0790178 0.173976 0.21967C0.0350685 0.360322 -0.0429687 0.551088 -0.0429688 0.75ZM4.47379 4.5H22.1097L19.7454 11.8485C19.7173 11.913 19.6936 11.9595 19.6758 11.991C19.6269 11.9955 19.5499 12 19.4284 12H5.92555V11.8515L5.8974 11.706L4.47379 4.5Z" fill="#5C5C5C"/>
</svg>
