<svg width="21" height="18" viewBox="0 0 21 18" fill="none" xmlns="http://www.w3.org/2000/svg">
<path d="M10.6 17.8C10.1 17.8 9.5 17.6 9.1 17.2C2.6 11.5 2.5 11.4 2.5 11.3L2.4 11.2C1.2 10 0.5 8.3 0.5 6.6V6.4C0.6 2.8 3.5 0 7.1 0C8.2 0 9.7 0.6 10.6 1.8C11.5 0.6 13.1 0 14.2 0C17.8 0 20.6 2.8 20.8 6.4V6.6C20.8 8.4 20.1 10 18.9 11.3L18.8 11.4C18.7 11.5 17.9 12.2 12.2 17.3C11.7 17.6 11.2 17.8 10.6 17.8ZM4 11C4.4 11.4 6.4 12.8 10.1 16C10.4 16.3 10.8 16.3 11.1 16C14.9 12.6 17.1 10.7 17.6 10.3L17.7 10.2C18.7 9.2 19.2 7.9 19.2 6.6V6.4C19.1 3.6 16.9 1.5 14.1 1.5C13.4 1.5 12 2 11.5 3.1C11.3 3.5 10.9 3.7 10.5 3.7C10.1 3.7 9.7 3.5 9.5 3.1C9 2.1 7.7 1.5 6.9 1.5C4.2 1.5 1.9 3.7 1.8 6.4V6.7C1.8 8 2.4 9.3 3.3 10.2L4 11Z" fill="#5C5C5C"/>
</svg>
