<svg width="17" height="22" viewBox="0 0 17 22" fill="none" xmlns="http://www.w3.org/2000/svg">
<path d="M8.57878 11.056C11.2176 11.056 13.3568 8.91682 13.3568 6.278C13.3568 3.63918 11.2176 1.5 8.57878 1.5C5.93996 1.5 3.80078 3.63918 3.80078 6.278C3.80078 8.91682 5.93996 11.056 8.57878 11.056Z" stroke="#5C5C5C" stroke-width="1.5" stroke-linecap="round" stroke-linejoin="round"/>
<path fill-rule="evenodd" clip-rule="evenodd" d="M1.00002 17.7016C0.998748 17.3657 1.07387 17.0339 1.21971 16.7313C1.67738 15.816 2.968 15.3308 4.03893 15.1112C4.81129 14.9463 5.59432 14.8362 6.38218 14.7816C7.84085 14.6535 9.30795 14.6535 10.7666 14.7816C11.5544 14.8369 12.3374 14.947 13.1099 15.1112C14.1808 15.3308 15.4714 15.7702 15.9291 16.7313C16.2224 17.3481 16.2224 18.0642 15.9291 18.681C15.4714 19.6421 14.1808 20.0814 13.1099 20.2919C12.3384 20.4636 11.5551 20.5768 10.7666 20.6306C9.57938 20.7313 8.3866 20.7496 7.19683 20.6855C6.92223 20.6855 6.65678 20.6855 6.38218 20.6306C5.59665 20.5775 4.81633 20.4642 4.04809 20.2919C2.968 20.0814 1.68653 19.6421 1.21971 18.681C1.07461 18.3749 0.999568 18.0403 1.00002 17.7016Z" stroke="#5C5C5C" stroke-width="1.5" stroke-linecap="round" stroke-linejoin="round"/>
</svg>
